P3
16 16
255
254 1 8 255 73 79 6 0 238 58 51 255 0 247 0 0 138 0 250 0 0 255 75 72 0 0 250 46 49 255 4 248 0 0 133 0 245 2 0 255 80 70 0 0 250 48 46 255 
255 2 0 255 73 71 6 0 238 58 51 255 0 247 0 0 138 0 250 0 0 255 75 72 0 0 252 49 47 255 4 248 0 0 133 0 245 2 0 255 80 70 0 0 250 48 46 255 
255 2 0 255 73 71 6 0 238 58 51 255 0 247 0 0 138 0 250 0 0 255 75 72 0 0 252 49 47 255 4 248 0 0 133 0 245 2 0 255 80 70 0 0 250 48 46 255 
255 2 0 255 73 71 6 0 238 58 51 255 0 247 0 0 138 0 250 0 0 255 75 72 0 0 252 49 47 255 4 248 0 0 133 0 245 2 0 255 80 70 0 0 250 48 46 255 
255 2 0 255 73 71 6 0 238 58 51 255 0 247 0 0 138 0 250 0 0 255 75 72 0 0 252 49 47 255 4 248 0 0 133 0 245 2 0 255 80 70 0 0 250 48 46 255 
255 2 0 255 73 71 6 0 238 58 51 255 0 247 0 0 138 0 250 0 0 255 75 72 0 0 252 49 47 255 4 248 0 0 133 0 245 2 0 255 80 70 0 0 250 48 46 255 
255 2 0 255 73 71 6 0 238 58 51 255 0 247 0 0 138 0 250 0 0 255 75 72 0 0 252 49 47 255 4 248 0 0 133 0 245 2 0 255 80 70 0 0 250 48 46 255 
255 2 0 255 73 71 6 0 238 58 51 255 0 247 0 0 138 0 250 0 0 255 75 72 0 0 252 49 47 255 4 248 0 0 133 0 245 2 0 255 80 70 0 0 250 48 46 255 
254 1 8 255 73 79 6 0 238 58 51 255 0 247 0 0 138 0 250 0 0 255 75 72 0 0 250 46 49 255 4 248 0 0 133 0 245 2 0 255 80 70 0 0 250 48 46 255 
255 2 0 255 73 71 6 0 238 58 51 255 0 247 0 0 138 0 250 0 0 255 75 72 0 0 252 49 47 255 4 248 0 0 133 0 245 2 0 255 80 70 0 0 250 48 46 255 
255 2 0 255 73 71 6 0 238 58 51 255 0 247 0 0 138 0 250 0 0 255 75 72 0 0 252 49 47 255 4 248 0 0 133 0 245 2 0 255 80 70 0 0 250 48 46 255 
255 2 0 255 73 71 6 0 238 58 51 255 0 247 0 0 138 0 250 0 0 255 75 72 0 0 252 49 47 255 4 248 0 0 133 0 245 2 0 255 80 70 0 0 250 48 46 255 
255 2 0 255 73 71 6 0 238 58 51 255 0 247 0 0 138 0 250 0 0 255 75 72 0 0 252 49 47 255 4 248 0 0 133 0 245 2 0 255 80 70 0 0 250 48 46 255 
255 2 0 255 73 71 6 0 238 58 51 255 0 247 0 0 138 0 250 0 0 255 75 72 0 0 252 49 47 255 4 248 0 0 133 0 245 2 0 255 80 70 0 0 250 48 46 255 
255 2 0 255 73 71 6 0 238 58 51 255 0 247 0 0 138 0 250 0 0 255 75 72 0 0 252 49 47 255 4 248 0 0 133 0 245 2 0 255 80 70 0 0 250 48 46 255 
255 2 0 255 73 71 6 0 238 58 51 255 0 247 0 0 138 0 250 0 0 255 75 72 0 0 252 49 47 255 4 248 0 0 133 0 245 2 0 255 80 70 0 0 250 48 46 255 
