P3
16 16
255
254 0 8 255 37 79 6 4 238 58 56 255 0 255 0 0 168 0 250 0 0 255 38 72 0 5 250 46 55 255 4 255 0 0 162 0 245 0 0 255 45 70 0 1 250 48 51 255 
255 0 0 255 37 71 6 4 238 58 56 255 0 255 0 0 168 0 250 0 0 255 38 72 0 3 252 49 52 255 4 255 0 0 162 0 245 0 0 255 45 70 0 1 250 48 51 255 
255 0 0 255 37 71 6 4 238 58 56 255 0 255 0 0 168 0 250 0 0 255 38 72 0 3 252 49 52 255 4 255 0 0 162 0 245 0 0 255 45 70 0 1 250 48 51 255 
255 0 0 255 37 71 6 4 238 58 56 255 0 255 0 0 168 0 250 0 0 255 38 72 0 3 252 49 52 255 4 255 0 0 162 0 245 0 0 255 45 70 0 1 250 48 51 255 
255 0 0 255 37 71 6 4 238 58 56 255 0 255 0 0 168 0 250 0 0 255 38 72 0 3 252 49 52 255 4 255 0 0 162 0 245 0 0 255 45 70 0 1 250 48 51 255 
255 0 0 255 37 71 6 4 238 58 56 255 0 255 0 0 168 0 250 0 0 255 38 72 0 3 252 49 52 255 4 255 0 0 162 0 245 0 0 255 45 70 0 1 250 48 51 255 
255 0 0 255 37 71 6 4 238 58 56 255 0 255 0 0 168 0 250 0 0 255 38 72 0 3 252 49 52 255 4 255 0 0 162 0 245 0 0 255 45 70 0 1 250 48 51 255 
255 0 0 255 37 71 6 4 238 58 56 255 0 255 0 0 168 0 250 0 0 255 38 72 0 3 252 49 52 255 4 255 0 0 162 0 245 0 0 255 45 70 0 1 250 48 51 255 
254 0 8 255 37 79 6 4 238 58 56 255 0 255 0 0 168 0 250 0 0 255 38 72 0 5 250 46 55 255 4 255 0 0 162 0 245 0 0 255 45 70 0 1 250 48 51 255 
255 0 0 255 37 71 6 4 238 58 56 255 0 255 0 0 168 0 250 0 0 255 38 72 0 3 252 49 52 255 4 255 0 0 162 0 245 0 0 255 45 70 0 1 250 48 51 255 
255 0 0 255 37 71 6 4 238 58 56 255 0 255 0 0 168 0 250 0 0 255 38 72 0 3 252 49 52 255 4 255 0 0 162 0 245 0 0 255 45 70 0 1 250 48 51 255 
255 0 0 255 37 71 6 4 238 58 56 255 0 255 0 0 168 0 250 0 0 255 38 72 0 3 252 49 52 255 4 255 0 0 162 0 245 0 0 255 45 70 0 1 250 48 51 255 
255 0 0 255 37 71 6 4 238 58 56 255 0 255 0 0 168 0 250 0 0 255 38 72 0 3 252 49 52 255 4 255 0 0 162 0 245 0 0 255 45 70 0 1 250 48 51 255 
255 0 0 255 37 71 6 4 238 58 56 255 0 255 0 0 168 0 250 0 0 255 38 72 0 3 252 49 52 255 4 255 0 0 162 0 245 0 0 255 45 70 0 1 250 48 51 255 
255 0 0 255 37 71 6 4 238 58 56 255 0 255 0 0 168 0 250 0 0 255 38 72 0 3 252 49 52 255 4 255 0 0 162 0 245 0 0 255 45 70 0 1 250 48 51 255 
255 0 0 255 37 71 6 4 238 58 56 255 0 255 0 0 168 0 250 0 0 255 38 72 0 3 252 49 52 255 4 255 0 0 162 0 245 0 0 255 45 70 0 1 250 48 51 255 
